HIERARCHY
ROOT Hips
{
  OFFSET -35.2597 29.1586 114.425
  CHANNELS 6 Xposition Yposition Zposition Zrotation Xrotation Yrotation
  JOINT LeftUpLeg
  {
    OFFSET 8.64259 1.95398 -2.38835
    CHANNELS 3 Zrotation Xrotation Yrotation
    JOINT LeftLeg
    {
      OFFSET 43.7702 0 0
      CHANNELS 3 Zrotation Xrotation Yrotation
      JOINT LeftFoot
      {
        OFFSET 40.6238 0 0
        CHANNELS 3 Zrotation Xrotation Yrotation
        JOINT LeftToeBase
        {
          OFFSET 12.7242 0 0
          CHANNELS 3 Zrotation Xrotation Yrotation
          End Site
          {
            OFFSET 0 0 0
          }
        }
      }
    }
  }
  JOINT RightUpLeg
  {
    OFFSET -8.2249 1.95398 -2.59336
    CHANNELS 3 Zrotation Xrotation Yrotation
    JOINT RightLeg
    {
      OFFSET 43.5653 0 0
      CHANNELS 3 Zrotation Xrotation Yrotation
      JOINT RightFoot
      {
        OFFSET 40.6238 0 0
        CHANNELS 3 Zrotation Xrotation Yrotation
        JOINT RightToeBase
        {
          OFFSET 12.7242 0 0
          CHANNELS 3 Zrotation Xrotation Yrotation
          End Site
          {
            OFFSET 0 0 0
          }
        }
      }
    }
  }
  JOINT Spine
  {
    OFFSET 0.165834 0.87714 6.61349
    CHANNELS 3 Zrotation Xrotation Yrotation
    JOINT Spine1
    {
      OFFSET 7.38963 1.71661e-005 0
      CHANNELS 3 Zrotation Xrotation Yrotation
      JOINT Spine2
      {
        OFFSET 11.9445 1.14441e-005 0
        CHANNELS 3 Zrotation Xrotation Yrotation
        JOINT Spine3
        {
          OFFSET 14.7254 4.19617e-005 0
          CHANNELS 3 Zrotation Xrotation Yrotation
          JOINT Spine4
          {
            OFFSET 10.9679 0 0
            CHANNELS 3 Zrotation Xrotation Yrotation
            JOINT RightShoulder
            {
              OFFSET 2.46616 -1.6653 3.69651
              CHANNELS 3 Zrotation Xrotation Yrotation
              JOINT RightArm
              {
                OFFSET 13.0012 0 0
                CHANNELS 3 Zrotation Xrotation Yrotation
                JOINT RightForeArm
                {
                  OFFSET 28.7848 1.62311e-005 0
                  CHANNELS 3 Zrotation Xrotation Yrotation
                  JOINT RightHand
                  {
                    OFFSET 26.5688 1.62095e-005 0
                    CHANNELS 3 Zrotation Xrotation Yrotation
                    End Site
                    {
                      OFFSET 0 0 0
                    }
                  }
                }
              }
            }
            JOINT LeftShoulder
            {
              OFFSET 2.38034 -1.29275 -3.7523
              CHANNELS 3 Zrotation Xrotation Yrotation
              JOINT LeftArm
              {
                OFFSET 16.3182 6.07031e-005 0
                CHANNELS 3 Zrotation Xrotation Yrotation
                JOINT LeftForeArm
                {
                  OFFSET 27.0901 0 0
                  CHANNELS 3 Zrotation Xrotation Yrotation
                  JOINT LeftHand
                  {
                    OFFSET 24.5451 1.51738e-005 0
                    CHANNELS 3 Zrotation Xrotation Yrotation
                    End Site
                    {
                      OFFSET 0 0 0
                    }
                  }
                }
              }
            }
            JOINT Neck
            {
              OFFSET 5.0226 -0.0266342 0
              CHANNELS 3 Zrotation Xrotation Yrotation
              JOINT Head
              {
                OFFSET 6.69364 2.86102e-005 0
                CHANNELS 3 Zrotation Xrotation Yrotation
                End Site
                {
                  OFFSET 0 0 0
                }
              }
            }
          }
        }
      }
    }
  }
}
MOTION
Frames:	10
Frame Time:	0.0416667
-88.4785 94.7982 -78.1967 -114.638 52.7448 -77.3367 -169.364 12.2743 83.5539 -37.4689 8.65181 -7.41307 67.5626 5.64532 6.32757 15.3347 -5.81489 -1.88152 175.68 -6.28922 77.4491 -69.0209 -29.6871 -12.434 54.4568 3.72406 -0.808408 17.3211 1.79692 7.72428 1.40722 8.54125 -89.3846 9.77899 3.08381 0.975397 -1.88856 3.12376 0.838602 -24.4438 2.64805 1.85758 -4.43116 2.64807 1.85759 88.7187 -31.5052 -108.671 30.5 -4.47127 -40.6302 -30.3437 -21.7576 -56.6817 -51.1006 9.94936 -26.07 -86.7161 -56.1603 84.5792 -7.7509 -19.532 34.0024 17.2526 30.8702 -29.9372 -0.136393 0.14741 7.24057 15.3605 1.29849 -0.29532 -2.55873 1.32363 1.16992 
-91.5293 96.0932 -80.5718 -112.196 52.1711 -78.8847 -170.431 9.32591 83.2103 -34.2969 8.23936 -6.9988 68.4527 6.43819 6.26325 16.3403 -5.32663 -1.80855 179.01 0.447673 80.6731 -72.1385 -23.6866 -10.8442 57.5714 1.71335 -1.69058 18.3888 2.04933 6.1599 1.17636 8.39127 -89.4469 10.0814 2.59613 0.881596 -1.58723 2.63243 0.766414 -24.136 2.21114 1.62135 -4.12339 2.21113 1.62134 87.8 -33.7394 -109.517 33.6424 -6.91714 -32.2317 -32.6291 -24.1311 -56.5929 -54.3569 11.603 -27.8208 -86.4145 -58.1796 85.277 -11.4739 -18.0696 10.0541 5.24668 33.3433 -7.955 2.89963 0.0154418 -1.35525 14.0738 1.95532 0.699735 -2.14085 1.71326 0.223171 
-94.399 97.7411 -82.9836 -110.541 49.0147 -78.6096 -172.069 5.16915 84.156 -30.0992 10.1534 -5.39288 68.386 6.40212 5.94943 16.6826 -5.79791 -0.79035 179.391 4.9155 84.3329 -70.1329 -20.8218 -8.76699 60.343 -0.169085 -2.85645 16.7519 2.32217 7.00819 0.81182 8.33721 -89.7429 10.1973 1.73498 0.363106 -1.47251 1.74926 0.286375 -24.015 1.5456 0.867864 -4.00234 1.54561 0.867863 87.51 -34.9862 -109.557 35.2566 -4.27068 -17.7978 -45.3223 -28.9362 -64.3395 -47.2322 10.2059 -28.5723 -86.4978 -60.6276 85.483 -14.1346 -17.5004 -3.63242 3.13208 31.0546 -4.19778 2.07988 -0.3216 -10.3093 12.6536 2.18029 1.89593 -1.93485 1.6536 -0.647317 
-97.1296 99.0084 -85.1923 -108.148 45.0643 -79.0193 -173.51 1.73145 84.9635 -26.1293 13.0879 -3.55626 68.2065 6.51745 6.08135 16.7993 -6.15149 -0.142063 178.21 9.12519 87.1234 -64.5211 -17.2491 -6.37749 61.8864 -1.05563 -3.40286 17.1328 2.24706 6.84365 0.437327 8.24828 -89.9193 10.3773 0.908225 0.0805977 -1.29337 0.9109 0.0405389 -23.8307 0.842002 0.349846 -3.81811 0.842015 0.349849 86.8206 -36.7267 -110.116 37.8481 -1.27036 -13.0844 -38.4493 -35.1838 -53.2345 -39.6911 10.4445 -34.1136 -86.7947 -59.8188 84.9773 -19.8524 -15.2554 -15.857 3.05948 29.2126 -4.12356 1.85838 -0.539063 -16.4075 11.362 1.47686 0.427302 -1.71532 1.33877 -0.422426 
-99.9967 99.8016 -87.3688 -105.991 40.6654 -79.4879 -174.64 -1.08578 85.838 -23.7454 16.2814 -1.83875 68.5545 6.8394 6.54871 17.3691 -5.96375 0.0526948 176.163 11.7456 88.5114 -55.0197 -13.2717 -3.62342 62.4434 -1.42726 -3.5532 17.7025 2.20667 6.4132 0.0765015 8.23823 -90.1059 10.3978 0.103976 -0.219165 -1.27318 0.094235 -0.223537 -23.8083 0.165047 -0.17778 -3.79561 0.165038 -0.177792 86.3085 -37.411 -110.754 41.5384 -0.0741506 -4.29599 -23.6804 -27.2793 -41.5551 -33.3809 6.41219 -25.7275 -87.1016 -59.3307 84.4949 -25.1321 -11.7226 -29.3383 3.1086 30.4498 -4.17244 2.64011 -0.6495 -17.9041 11.1929 0.62112 -1.19156 -1.36789 0.885421 0.473191 
-102.441 100.173 -89.6175 -103.939 37.1968 -80.3625 -174.812 -3.11373 86.7427 -22.0222 18.9559 -0.874323 69.1573 7.14437 6.48535 17.7012 -5.5315 -0.342386 175.42 13.7579 89.564 -43.5719 -9.65452 -1.68231 62.2412 -1.39984 -2.92474 17.3552 2.29011 6.53128 -0.0964566 8.20596 -90.2154 10.4612 -0.290815 -0.402295 -1.20974 -0.308233 -0.389108 -23.7445 -0.156466 -0.471095 -3.73189 -0.156471 -0.471097 86.6674 -37.2078 -110.2 38.558 6.46119 -11.1884 -12.7189 -48.5916 -14.8935 -35.6903 7.7332 -28.8106 -88.0408 -57.9217 83.0013 -29.0852 -7.28542 -41.8597 3.4523 38.0048 -4.52487 3.69367 -0.87793 -19.2008 11.2179 -0.624725 -2.6539 -0.910625 0.0167378 0.628738 
-104.97 100.112 -91.7947 -102.455 33.7516 -81.4232 -175.145 -5.127 87.183 -21.2381 21.2393 0.222757 70.5813 8.07325 6.164 18.1973 -5.05756 -0.672838 175.409 14.2353 89.5055 -30.2573 -8.1324 -0.748795 60.7627 -0.878732 -2.26959 17.7597 2.10973 6.59953 -0.329479 8.20775 -90.194 10.4573 -0.745163 -0.31962 -1.21341 -0.758515 -0.286519 -23.7495 -0.614662 -0.528803 -3.73687 -0.614654 -0.528798 86.6193 -38.054 -109.959 35.9278 10.416 -5.63092 -6.36522 -54.4537 -6.18144 -27.9799 5.2378 -26.4841 -88.5396 -54.7342 81.7756 -32.2725 -2.20016 -52.6256 3.75246 43.2405 -4.82908 5.36309 -1.14126 -19.818 11.8843 -1.78762 -4.6363 -0.954046 -0.618074 1.0298 
-107.672 99.8323 -94.3113 -102.058 31.7012 -82.5361 -174.951 -8.12304 87.4476 -20.1126 23.1204 0.519116 71.9593 9.28896 6.03262 18.6995 -4.60028 -0.981858 175.695 13.4652 88.9181 -17.0614 -8.24552 -0.6229 57.9765 0.482243 -1.77039 18.2594 2.0823 6.19614 -0.481641 8.28542 -90.1018 10.303 -1.00614 -0.115071 -1.3676 -1.01025 -0.0706748 -23.9055 -0.925025 -0.412164 -3.89281 -0.925033 -0.412167 86.6597 -38.4843 -109.725 35.971 11.7382 2.68789 -5.64188 -46.6619 -5.66419 -22.0843 1.86017 -15.0189 -88.9662 -52.1202 80.6843 -33.8427 2.00656 -61.2356 3.84895 44.7158 -4.92637 8.63092 -1.80195 -22.0283 12.4364 -2.28893 -4.93134 -0.661887 -1.00872 0.505016 
-110.455 99.1087 -97.013 -102.084 30.9223 -83.4983 -174.22 -11.1751 87.9818 -19.455 23.8652 0.225686 74.5372 11.1789 4.92176 19.6239 -3.94334 -1.26679 175.652 13.4387 88.6622 -8.50816 -7.62818 -0.301213 57.87 0.532176 -0.978589 19.3075 1.77923 5.93984 -0.597823 8.35373 -89.9584 10.1677 -1.17215 0.181585 -1.50269 -1.16301 0.232996 -24.0421 -1.17253 -0.179145 -4.02941 -1.17252 -0.179139 86.0204 -38.5172 -110.823 35.6211 12.8849 9.55113 -5.05855 -38.2791 -5.31267 -14.0898 0.034745 -5.42855 -88.827 -49.3297 80.3526 -33.9185 4.7263 -68.681 3.92393 45.8068 -5.00194 10.2908 -2.27796 -23.902 12.4934 -2.32896 -5.21398 -0.201306 -0.973317 0.457157 
-113.617 97.9846 -99.9663 -102.234 30.8759 -83.7675 -173.04 -14.0271 89.1064 -20.0074 24.7129 -0.149216 77.5241 13.5274 4.92209 21.0018 -3.61979 -0.601751 175.479 14.7522 89.1884 -7.22349 -3.02548 0.70105 61.0943 -0.945922 0.206636 21.9141 0.96045 5.53943 -0.641367 8.37766 -89.9236 10.1203 -1.24316 0.256014 -1.55006 -1.23069 0.310492 -24.09 -1.26261 -0.129498 -4.07733 -1.26265 -0.129508 86.5215 -37.1959 -110.463 37.2662 13.3134 14.8442 -4.63422 -30.7821 -5.11464 -12.2627 -0.411094 -1.48199 -88.6247 -48.5334 80.5015 -33.239 6.05254 -74.3497 3.97606 46.5317 -5.05478 10.6809 -2.83227 -28.0038 12.57 -2.09523 -4.08647 -0.202879 -1.02775 -0.279319 
